# xmcd
#
# Track frame offsets:
#	150
#	15623
#	27754
#	45680
#	58669
#	73603
#	87692
#	106482
#	121005
#	139686
#	158916
#	168333
#	183340
#	197623
#	210560
#
# Disc length: 2991 seconds
# Revision: 3
# Processed by: cddbd v1.5.2PL0 Copyright (c) Steve Scherf et al.
# Submitted via: dBpowerAMP V12.0
#
DISCID=ca0bad0f
DTITLE=Anne Murray - Country Croonin' (2002 CAN)[CD2]
DYEAR=2002
DGENRE=Country
TTITLE0=Make The World Go Away
TTITLE1=Anytime
TTITLE2=You Don't Know Me
TTITLE3=Bye, Bye Love
TTITLE4=Vaya Con Dios
TTITLE5=Take These Chains From My Heart
TTITLE6=For The Good Times
TTITLE7=Sea Of Heartbreak
TTITLE8=She'll Have to Go
TTITLE9=I'm Confessin' (That I Love You)/I'm Fool A To Care
TTITLE10=Blue, Blue Day
TTITLE11=That's The Way Love Goes
TTITLE12=I Fall To Pieces
TTITLE13=All I Have To Dream
TTITLE14=Tennessee Waltz
EXTD=
EXTT0=
EXTT1=
EXTT2=
EXTT3=
EXTT4=
EXTT5=
EXTT6=
EXTT7=
EXTT8=
EXTT9=
EXTT10=
EXTT11=
EXTT12=
EXTT13=
EXTT14=
PLAYORDER=
